<svg id="Capa_1" data-name="Capa 1" xmlns="http://www.w3.org/2000/svg" viewBox="0 0 591.47 591.47"><defs><style>.cls-1{fill:#fff;stroke:#fff;stroke-miterlimit:10;}.cls-2{fill:#f0850b;}</style></defs><path class="cls-1" d="M367,493.6h20.42c46.44-.26,86.62-16.21,119.6-49,30.95-30.79,47.61-68.31,49.22-112,.79-21.49.33-43,.23-64.54-.23-49.29-18.47-91-54.63-124.27-31.66-29.17-69.45-43.82-112.59-43.92q-70.93-.19-141.86,0A140.62,140.62,0,0,0,228,101.26c-38.61,5.59-71.61,22.4-98.45,50.67-28.32,29.86-44.11,65.52-45.88,106.74-1,22.64-.25,45.38-.29,68.07,0,31.12,8.39,59.86,24.42,86.41,4,6.61,3.71,9.39-1.63,14.76q-30.51,30.84-61,61.7c-1,1.05-1.94,2.22-3.25,3.72H171.93Z"/><polygon class="cls-2" points="324.83 363.29 364.29 477.19 203.2 533.2 162.82 416.66 324.83 363.29"/><path d="M179.92,505.93H28.86c-4.14,0-7.67-.77-9.52-4.84-1.62-3.53-.6-6.9,3.07-10.59q35.42-35.82,70.89-71.61c2-2.05,2-3.43.67-5.79-15.46-27.57-22.92-57.38-22.89-89,0-22.73-.58-45.52.69-68.2,2.45-43.76,19.52-81.56,49.85-113.15C150.17,113,185,95.1,225.82,89.16a175.94,175.94,0,0,1,24.37-1.82q69.36-.25,138.67-.08c84.75,0,159.85,62.19,175.43,145.56a232.62,232.62,0,0,1,3.39,35.38c.53,19.54.14,39.11.14,58.65,0,82.59-58.76,156.2-139.29,174.51a181,181,0,0,1-41,4.6q-36.37-.15-72.77-.08a15,15,0,0,0-4.44.89q-50.72,17.13-101.41,34.28c-9.7,3.28-16.77-.22-20.15-9.91-2.82-8.07-5.52-16.17-8.28-24.25A7.27,7.27,0,0,0,179.92,505.93ZM365.7,489.7h20c45.52-.26,84.9-15.9,117.23-48.06,30.33-30.17,46.67-66.95,48.25-109.8.76-21,.32-42.17.22-63.25-.23-48.31-18.11-89.15-53.54-121.81-31-28.58-68.08-42.94-110.36-43q-69.52-.19-139,0a136.8,136.8,0,0,0-19.07,1.4c-37.83,5.48-70.18,22-96.48,49.67-27.76,29.26-43.24,64.21-45,104.61-1,22.19-.24,44.48-.27,66.72,0,30.5,8.22,58.67,23.93,84.7,3.9,6.48,3.63,9.2-1.6,14.47q-29.91,30.21-59.82,60.47c-1,1-1.9,2.18-3.18,3.65H174.46c-.32-1.17-.51-2-.76-2.84q-10.27-30.46-20.57-60.9c-3.55-10.46,0-17.57,10.53-21.13q17.35-5.85,34.62-11.73c-1.39-11.81-.3-14.48,8.34-20.56-.22-1.09-.47-2.27-.77-3.59l13.67-4.53,11.55,13c-1,.41-2.3,1-3.62,1.4-4.95,1.68-9.92,3.28-14.85,5-2.46.85-4,2.23-2,5.15L271.74,368c-1-3.46-2.77-3.57-5.22-2.71-5.22,1.84-10.49,3.52-14.95,5-1-4.61-1.8-8.72-2.68-12.84q-4.38-20.4-8.83-40.78c-.5-2.24-.57-4.26,2-4.89,2.94-.7,3.68,1.5,4.17,3.77q1.57,7.49,3.21,15c1.53,7.15,3.17,14.31,4.82,21.7l8.93-2.77c.65,1.21,1.23,2.3,1.82,3.35,9.33-1.33,15.43,2.58,18.59,11.24,10.44-3.55,20.56-7,30.68-10.42,10.28-3.46,17.41.15,20.87,10.45q6.76,20.13,13.55,40.25Q359.81,437.18,370.9,470c1.62,4.75,1.54,9.26-1.28,13.56-1.53,2.44-3.11,4.91-3.92,6.14Zm-8.38-14.18c-.34-1.37-.53-2.48-.88-3.54q-17.08-50.67-34.12-101.34c-1.1-3.28-2.52-3.73-5.59-2.66-15,5.19-30,10.21-45,15.27Q221,400.41,170.15,417.5c-3,1-4,2-2.89,5.36q17.34,50.79,34.34,101.68c.93,2.79,2.07,3.07,4.72,2.21q72.7-24.66,145.45-49.19c1.8-.59,3.55-1.28,5.55-2Z"/><path d="M499.49,238.53a21.15,21.15,0,1,1-21.68-20.94C489.91,217.45,499.37,226.57,499.49,238.53Z"/><path d="M302.55,217.59a21.09,21.09,0,0,1-.44,42.18,21.09,21.09,0,0,1,.44-42.18Z"/><path d="M394.93,309a36.93,36.93,0,0,1-36.1-28.09c-1-4.05.13-6.57,3.22-7.42,3.28-.91,5.58.76,6.76,4.93,3.47,12.22,13.9,20.46,26,20.46,12.27.05,22.69-8.09,26.32-20.57,1.19-4.1,3.55-5.77,6.82-4.82,3,.85,4.11,3.5,3.14,7.46-.12.5-.22,1-.36,1.48A37,37,0,0,1,394.93,309Z"/></svg>